<svg xmlns="http://www.w3.org/2000/svg" viewBox="108.35 207.47 625.23 180.27">

  <!-- Generator: Adobe Illustrator 30.4.0, SVG Export Plug-In . SVG Version: 2.1.4 Build 226)  -->
  <defs>
    <style>
      .st0 {
        fill: #1d1d1b;
      }
    </style>
  </defs>
  <g>
    <path class="st0" d="M149.72,265.87h.16l25.15-24.83h10.9l-27.38,25.79,29.05,30.56h-11.3l-26.42-29.13h-.16v29.13h-7.88v-56.35h7.88v24.83Z"/>
    <path class="st0" d="M206.14,290.39h25.15v7h-33.03v-56.35h7.88v49.34Z"/>
  </g>
  <g>
    <path class="st0" d="M315,297.39h-7.88v-56.35h18.07c2.7,0,5.28.28,7.72.83,2.44.56,4.58,1.45,6.41,2.67,1.83,1.22,3.27,2.83,4.34,4.81,1.06,1.99,1.59,4.42,1.59,7.28,0,4.14-1.27,7.48-3.82,10.03-2.55,2.55-5.84,4.17-9.87,4.86l15.76,25.86h-9.55l-14.33-25.07h-8.44v25.07ZM315,265.72h9.07c1.86,0,3.58-.16,5.17-.48,1.59-.32,2.99-.84,4.18-1.55,1.19-.72,2.14-1.64,2.83-2.79.69-1.14,1.04-2.56,1.04-4.25s-.35-3.12-1.04-4.26-1.6-2.06-2.75-2.75c-1.14-.69-2.48-1.18-4.02-1.47-1.54-.29-3.16-.44-4.85-.44h-9.63v17.99Z"/>
    <path class="st0" d="M367.77,290.39h29.45v7h-37.33v-56.35h36.13v6.92h-28.25v16.87h26.58v6.77h-26.58v18.78Z"/>
    <path class="st0" d="M439.81,265.87h.16l25.15-24.83h10.9l-27.38,25.79,29.05,30.56h-11.3l-26.42-29.13h-.16v29.13h-7.88v-56.35h7.88v24.83Z"/>
  </g>
  <g>
    <path class="st0" d="M587.76,286.09h.16v-45.04h7.88v56.35h-9.95l-29.76-46h-.16v46h-7.88v-56.35h10.27l29.45,45.04Z"/>
    <path class="st0" d="M633.2,297.39h-7.88v-49.42h-18.07v-6.92h44.01v6.92h-18.07v49.42Z"/>
    <path class="st0" d="M670.6,290.39h29.45v7h-37.33v-56.35h36.13v6.92h-28.25v16.87h26.58v6.77h-26.58v18.78Z"/>
  </g>
  <polygon class="st0" points="530.51 297.53 540.2 297.53 515.9 241.18 507.79 241.18 483.31 297.53 492.74 297.53 511.49 251.37 511.76 251.37 530.51 297.53"/>
  <polygon class="st0" points="286.13 297.53 295.82 297.53 271.51 241.18 263.41 241.18 238.93 297.53 248.35 297.53 267.11 251.37 267.37 251.37 286.13 297.53"/>
  <g>
    <path class="st0" d="M251.69,331.48h3.02v9.13h11.36v-9.13h3.02v22.1h-3.02v-10.33h-11.36v10.33h-3.02v-22.1Z"/>
    <path class="st0" d="M283.33,331.48h3.38l8.02,22.1h-3.28l-2.24-6.62h-8.74l-2.39,6.62h-3.07l8.32-22.1ZM288.25,344.53l-3.35-9.76-3.57,9.76h6.92Z"/>
    <path class="st0" d="M303.77,331.48v13.66c0,1.61.3,2.94.91,4,.9,1.6,2.42,2.41,4.55,2.41,2.56,0,4.29-.87,5.21-2.6.49-.94.74-2.21.74-3.81v-13.66h3.02v12.41c0,2.72-.37,4.81-1.1,6.27-1.35,2.67-3.9,4-7.64,4s-6.28-1.34-7.62-4c-.73-1.46-1.1-3.55-1.1-6.27v-12.41h3.02Z"/>
    <path class="st0" d="M327.79,346.45c.07,1.25.35,2.27.86,3.05.96,1.46,2.64,2.2,5.06,2.2,1.08,0,2.07-.16,2.96-.48,1.72-.62,2.58-1.73,2.58-3.34,0-1.2-.36-2.06-1.09-2.57-.74-.5-1.89-.94-3.47-1.31l-2.9-.68c-1.89-.44-3.23-.93-4.02-1.46-1.36-.92-2.04-2.3-2.04-4.14,0-1.98.67-3.61,2.01-4.89,1.34-1.27,3.23-1.91,5.68-1.91,2.25,0,4.17.56,5.74,1.68s2.36,2.91,2.36,5.36h-2.81c-.14-1.18-.45-2.09-.92-2.72-.88-1.15-2.36-1.73-4.46-1.73-1.69,0-2.91.37-3.65,1.11-.74.74-1.11,1.61-1.11,2.59,0,1.08.44,1.87,1.31,2.37.57.32,1.87.72,3.89,1.2l3,.71c1.45.34,2.57.8,3.35,1.4,1.36,1.03,2.04,2.53,2.04,4.5,0,2.45-.87,4.19-2.6,5.25s-3.75,1.58-6.05,1.58c-2.68,0-4.78-.7-6.29-2.11-1.52-1.39-2.26-3.28-2.23-5.67h2.81Z"/>
    <path class="st0" d="M351.21,331.48l6.35,18.82,6.27-18.82h3.35l-8.06,22.1h-3.17l-8.05-22.1h3.31Z"/>
    <path class="st0" d="M373.38,331.48h16.03v2.71h-13.12v6.71h12.12v2.56h-12.12v7.49h13.34v2.63h-16.26v-22.1Z"/>
    <path class="st0" d="M397.08,331.48h10.04c1.65,0,3.02.25,4.09.74,2.04.94,3.06,2.68,3.06,5.22,0,1.32-.27,2.41-.82,3.25-.55.84-1.31,1.52-2.29,2.03.86.35,1.51.81,1.95,1.39.44.57.68,1.5.73,2.78l.11,2.96c.03.84.1,1.47.21,1.88.18.7.5,1.15.96,1.36v.49h-3.67c-.1-.19-.18-.44-.24-.74-.06-.3-.11-.88-.15-1.74l-.18-3.69c-.07-1.45-.59-2.41-1.56-2.9-.56-.27-1.43-.41-2.62-.41h-6.62v9.47h-2.99v-22.1ZM406.8,341.61c1.37,0,2.44-.28,3.24-.84.79-.56,1.19-1.57,1.19-3.04,0-1.57-.56-2.65-1.67-3.22-.59-.3-1.39-.45-2.39-.45h-7.11v7.55h6.73Z"/>
    <path class="st0" d="M422.96,331.48l4.17,17.95,4.99-17.95h3.24l5.01,17.99,4.17-17.99h3.28l-5.81,22.1h-3.14l-5.1-18.32-5.13,18.32h-3.14l-5.78-22.1h3.25Z"/>
    <path class="st0" d="M458.93,331.48h3.38l8.01,22.1h-3.28l-2.24-6.62h-8.74l-2.39,6.62h-3.07l8.32-22.1ZM463.85,344.53l-3.35-9.76-3.57,9.76h6.92Z"/>
    <path class="st0" d="M476.13,331.48h2.99v19.47h11.08v2.63h-14.08v-22.1Z"/>
    <path class="st0" d="M510.13,331.48v2.63h-7.45v19.47h-3.02v-19.47h-7.45v-2.63h17.91Z"/>
    <path class="st0" d="M519.2,331.48v13.66c0,1.61.3,2.94.91,4,.9,1.6,2.42,2.41,4.55,2.41,2.56,0,4.29-.87,5.21-2.6.49-.94.74-2.21.74-3.81v-13.66h3.02v12.41c0,2.72-.37,4.81-1.1,6.27-1.35,2.67-3.9,4-7.64,4s-6.28-1.34-7.62-4c-.73-1.46-1.1-3.55-1.1-6.27v-12.41h3.03Z"/>
    <path class="st0" d="M541.26,331.48h3.52l11.02,17.85v-17.85h2.86v22.1h-3.36l-11.18-17.83v17.83h-2.86v-22.1Z"/>
    <path class="st0" d="M581.26,332.12c2.16,1.15,3.49,3.17,3.97,6.06h-2.96c-.35-1.61-1.09-2.79-2.2-3.53-1.11-.74-2.51-1.1-4.19-1.1-2,0-3.69.77-5.06,2.3-1.37,1.53-2.05,3.82-2.05,6.86,0,2.63.57,4.76,1.69,6.41,1.13,1.65,2.97,2.47,5.53,2.47,1.95,0,3.57-.58,4.86-1.74,1.28-1.16,1.94-3.03,1.97-5.61h-6.92v-2.48h9.7v11.82h-1.93l-.72-2.84c-1,1.11-1.88,1.88-2.65,2.31-1.29.74-2.93,1.11-4.93,1.11-2.57,0-4.79-.85-6.64-2.54-2.02-2.13-3.03-5.05-3.03-8.76s.99-6.64,2.97-8.83c1.88-2.08,4.31-3.13,7.3-3.13,2.04,0,3.81.4,5.31,1.2Z"/>
  </g>

</svg>
